<svg xmlns="http://www.w3.org/2000/svg" version="1.1" xmlns:xlink="http://www.w3.org/1999/xlink" xmlns:svgjs="http://svgjs.dev/svgjs" width="1440" height="1440" preserveAspectRatio="none" viewBox="0 0 1440 1440"><g mask="url(&quot;#SvgjsMask1403&quot;)" fill="none"><path d="M57.39 -70.82L122.34 -33.32L122.34 41.68L57.39 79.18L-7.56 41.68L-7.56 -33.32zM57.39 604.18L122.34 641.68L122.34 716.68L57.39 754.18L-7.56 716.68L-7.56 641.68zM57.39 829.18L122.34 866.68L122.34 941.68L57.39 979.18L-7.56 941.68L-7.56 866.68zM122.34 1166.68L187.3 1204.18L187.3 1279.18L122.34 1316.68L57.39 1279.18L57.39 1204.18zM57.39 1279.18L122.34 1316.68L122.34 1391.68L57.39 1429.18L-7.56 1391.68L-7.56 1316.68zM122.34 1391.68L187.3 1429.18L187.3 1504.18L122.34 1541.68L57.39 1504.18L57.39 1429.18zM252.25 41.68L317.2 79.18L317.2 154.18L252.25 191.68L187.3 154.18L187.3 79.18zM252.25 266.68L317.2 304.18L317.2 379.18L252.25 416.68L187.3 379.18L187.3 304.18zM252.25 716.68L317.2 754.18L317.2 829.18L252.25 866.68L187.3 829.18L187.3 754.18zM187.3 1054.18L252.25 1091.68L252.25 1166.68L187.3 1204.18L122.34 1166.68L122.34 1091.68zM187.3 1279.18L252.25 1316.68L252.25 1391.68L187.3 1429.18L122.34 1391.68L122.34 1316.68zM382.16 491.68L447.11 529.18L447.11 604.18L382.16 641.68L317.2 604.18L317.2 529.18zM317.2 1279.18L382.16 1316.68L382.16 1391.68L317.2 1429.18L252.25 1391.68L252.25 1316.68zM447.11 -70.82L512.07 -33.32L512.07 41.68L447.11 79.18L382.16 41.68L382.16 -33.32zM512.07 491.68L577.02 529.18L577.02 604.18L512.07 641.68L447.11 604.18L447.11 529.18zM512.07 941.68L577.02 979.18L577.02 1054.18L512.07 1091.68L447.11 1054.18L447.11 979.18zM447.11 1279.18L512.07 1316.68L512.07 1391.68L447.11 1429.18L382.16 1391.68L382.16 1316.68zM577.02 154.18L641.97 191.68L641.97 266.68L577.02 304.18L512.07 266.68L512.07 191.68zM641.97 716.68L706.93 754.18L706.93 829.18L641.97 866.68L577.02 829.18L577.02 754.18zM577.02 829.18L641.97 866.68L641.97 941.68L577.02 979.18L512.07 941.68L512.07 866.68zM577.02 1279.18L641.97 1316.68L641.97 1391.68L577.02 1429.18L512.07 1391.68L512.07 1316.68zM641.97 1391.68L706.93 1429.18L706.93 1504.18L641.97 1541.68L577.02 1504.18L577.02 1429.18zM771.88 41.68L836.84 79.18L836.84 154.18L771.88 191.68L706.93 154.18L706.93 79.18zM706.93 829.18L771.88 866.68L771.88 941.68L706.93 979.18L641.97 941.68L641.97 866.68zM706.93 1054.18L771.88 1091.68L771.88 1166.68L706.93 1204.18L641.97 1166.68L641.97 1091.68zM901.79 41.68L966.74 79.18L966.74 154.18L901.79 191.68L836.83 154.18L836.83 79.18zM836.83 154.18L901.79 191.68L901.79 266.68L836.83 304.18L771.88 266.68L771.88 191.68zM901.79 491.68L966.74 529.18L966.74 604.18L901.79 641.68L836.83 604.18L836.83 529.18zM836.83 1054.18L901.79 1091.68L901.79 1166.68L836.83 1204.18L771.88 1166.68L771.88 1091.68zM1031.7 491.68L1096.65 529.18L1096.65 604.18L1031.7 641.68L966.74 604.18L966.74 529.18zM1031.7 1166.68L1096.65 1204.18L1096.65 1279.18L1031.7 1316.68L966.74 1279.18L966.74 1204.18zM1096.65 -70.82L1161.6 -33.32L1161.6 41.68L1096.65 79.18L1031.7 41.68L1031.7 -33.32zM1161.6 266.68L1226.56 304.18L1226.56 379.18L1161.6 416.68L1096.65 379.18L1096.65 304.18zM1096.65 379.18L1161.6 416.68L1161.6 491.68L1096.65 529.18L1031.7 491.68L1031.7 416.68zM1161.6 491.68L1226.56 529.18L1226.56 604.18L1161.6 641.68L1096.65 604.18L1096.65 529.18zM1096.65 604.18L1161.6 641.68L1161.6 716.68L1096.65 754.18L1031.7 716.68L1031.7 641.68zM1161.6 716.68L1226.56 754.18L1226.56 829.18L1161.6 866.68L1096.65 829.18L1096.65 754.18zM1096.65 1054.18L1161.6 1091.68L1161.6 1166.68L1096.65 1204.18L1031.7 1166.68L1031.7 1091.68zM1226.56 -70.82L1291.51 -33.32L1291.51 41.68L1226.56 79.18L1161.6 41.68L1161.6 -33.32zM1226.56 154.18L1291.51 191.68L1291.51 266.68L1226.56 304.18L1161.6 266.68L1161.6 191.68zM1291.51 266.68L1356.46 304.18L1356.46 379.18L1291.51 416.68L1226.56 379.18L1226.56 304.18zM1226.56 604.18L1291.51 641.68L1291.51 716.68L1226.56 754.18L1161.6 716.68L1161.6 641.68zM1291.51 941.68L1356.46 979.18L1356.46 1054.18L1291.51 1091.68L1226.56 1054.18L1226.56 979.18zM1226.56 1279.18L1291.51 1316.68L1291.51 1391.68L1226.56 1429.18L1161.6 1391.68L1161.6 1316.68zM1356.47 -70.82L1421.42 -33.32L1421.42 41.68L1356.47 79.18L1291.51 41.68L1291.51 -33.32zM1356.47 829.18L1421.42 866.68L1421.42 941.68L1356.47 979.18L1291.51 941.68L1291.51 866.68zM1356.47 1279.18L1421.42 1316.68L1421.42 1391.68L1356.47 1429.18L1291.51 1391.68L1291.51 1316.68zM1551.33 41.68L1616.28 79.18L1616.28 154.18L1551.33 191.68L1486.37 154.18L1486.37 79.18zM1551.33 491.68L1616.28 529.18L1616.28 604.18L1551.33 641.68L1486.37 604.18L1486.37 529.18zM1486.37 604.18L1551.33 641.68L1551.33 716.68L1486.37 754.18L1421.42 716.68L1421.42 641.68zM1486.37 1054.18L1551.33 1091.68L1551.33 1166.68L1486.37 1204.18L1421.42 1166.68L1421.42 1091.68z" stroke="rgba(0, 0, 0, 0)" stroke-width="2"></path><path d="M49.89 -70.82 a7.5 7.5 0 1 0 15 0 a7.5 7.5 0 1 0 -15 0zM114.84 -33.32 a7.5 7.5 0 1 0 15 0 a7.5 7.5 0 1 0 -15 0zM114.84 41.68 a7.5 7.5 0 1 0 15 0 a7.5 7.5 0 1 0 -15 0zM49.89 79.18 a7.5 7.5 0 1 0 15 0 a7.5 7.5 0 1 0 -15 0zM-15.06 41.68 a7.5 7.5 0 1 0 15 0 a7.5 7.5 0 1 0 -15 0zM-15.06 -33.32 a7.5 7.5 0 1 0 15 0 a7.5 7.5 0 1 0 -15 0zM49.89 604.18 a7.5 7.5 0 1 0 15 0 a7.5 7.5 0 1 0 -15 0zM114.84 641.68 a7.5 7.5 0 1 0 15 0 a7.5 7.5 0 1 0 -15 0zM114.84 716.68 a7.5 7.5 0 1 0 15 0 a7.5 7.5 0 1 0 -15 0zM49.89 754.18 a7.5 7.5 0 1 0 15 0 a7.5 7.5 0 1 0 -15 0zM-15.06 716.68 a7.5 7.5 0 1 0 15 0 a7.5 7.5 0 1 0 -15 0zM-15.06 641.68 a7.5 7.5 0 1 0 15 0 a7.5 7.5 0 1 0 -15 0zM49.89 829.18 a7.5 7.5 0 1 0 15 0 a7.5 7.5 0 1 0 -15 0zM114.84 866.68 a7.5 7.5 0 1 0 15 0 a7.5 7.5 0 1 0 -15 0zM114.84 941.68 a7.5 7.5 0 1 0 15 0 a7.5 7.5 0 1 0 -15 0zM49.89 979.18 a7.5 7.5 0 1 0 15 0 a7.5 7.5 0 1 0 -15 0zM-15.06 941.68 a7.5 7.5 0 1 0 15 0 a7.5 7.5 0 1 0 -15 0zM-15.06 866.68 a7.5 7.5 0 1 0 15 0 a7.5 7.5 0 1 0 -15 0zM114.84 1166.68 a7.5 7.5 0 1 0 15 0 a7.5 7.5 0 1 0 -15 0zM179.8 1204.18 a7.5 7.5 0 1 0 15 0 a7.5 7.5 0 1 0 -15 0zM179.8 1279.18 a7.5 7.5 0 1 0 15 0 a7.5 7.5 0 1 0 -15 0zM114.84 1316.68 a7.5 7.5 0 1 0 15 0 a7.5 7.5 0 1 0 -15 0zM49.89 1279.18 a7.5 7.5 0 1 0 15 0 a7.5 7.5 0 1 0 -15 0zM49.89 1204.18 a7.5 7.5 0 1 0 15 0 a7.5 7.5 0 1 0 -15 0zM114.84 1391.68 a7.5 7.5 0 1 0 15 0 a7.5 7.5 0 1 0 -15 0zM49.89 1429.18 a7.5 7.5 0 1 0 15 0 a7.5 7.5 0 1 0 -15 0zM-15.06 1391.68 a7.5 7.5 0 1 0 15 0 a7.5 7.5 0 1 0 -15 0zM-15.06 1316.68 a7.5 7.5 0 1 0 15 0 a7.5 7.5 0 1 0 -15 0zM179.8 1429.18 a7.5 7.5 0 1 0 15 0 a7.5 7.5 0 1 0 -15 0zM179.8 1504.18 a7.5 7.5 0 1 0 15 0 a7.5 7.5 0 1 0 -15 0zM114.84 1541.68 a7.5 7.5 0 1 0 15 0 a7.5 7.5 0 1 0 -15 0zM49.89 1504.18 a7.5 7.5 0 1 0 15 0 a7.5 7.5 0 1 0 -15 0zM244.75 41.68 a7.5 7.5 0 1 0 15 0 a7.5 7.5 0 1 0 -15 0zM309.7 79.18 a7.5 7.5 0 1 0 15 0 a7.5 7.5 0 1 0 -15 0zM309.7 154.18 a7.5 7.5 0 1 0 15 0 a7.5 7.5 0 1 0 -15 0zM244.75 191.68 a7.5 7.5 0 1 0 15 0 a7.5 7.5 0 1 0 -15 0zM179.8 154.18 a7.5 7.5 0 1 0 15 0 a7.5 7.5 0 1 0 -15 0zM179.8 79.18 a7.5 7.5 0 1 0 15 0 a7.5 7.5 0 1 0 -15 0zM244.75 266.68 a7.5 7.5 0 1 0 15 0 a7.5 7.5 0 1 0 -15 0zM309.7 304.18 a7.5 7.5 0 1 0 15 0 a7.5 7.5 0 1 0 -15 0zM309.7 379.18 a7.5 7.5 0 1 0 15 0 a7.5 7.5 0 1 0 -15 0zM244.75 416.68 a7.5 7.5 0 1 0 15 0 a7.5 7.5 0 1 0 -15 0zM179.8 379.18 a7.5 7.5 0 1 0 15 0 a7.5 7.5 0 1 0 -15 0zM179.8 304.18 a7.5 7.5 0 1 0 15 0 a7.5 7.5 0 1 0 -15 0zM244.75 716.68 a7.5 7.5 0 1 0 15 0 a7.5 7.5 0 1 0 -15 0zM309.7 754.18 a7.5 7.5 0 1 0 15 0 a7.5 7.5 0 1 0 -15 0zM309.7 829.18 a7.5 7.5 0 1 0 15 0 a7.5 7.5 0 1 0 -15 0zM244.75 866.68 a7.5 7.5 0 1 0 15 0 a7.5 7.5 0 1 0 -15 0zM179.8 829.18 a7.5 7.5 0 1 0 15 0 a7.5 7.5 0 1 0 -15 0zM179.8 754.18 a7.5 7.5 0 1 0 15 0 a7.5 7.5 0 1 0 -15 0zM179.8 1054.18 a7.5 7.5 0 1 0 15 0 a7.5 7.5 0 1 0 -15 0zM244.75 1091.68 a7.5 7.5 0 1 0 15 0 a7.5 7.5 0 1 0 -15 0zM244.75 1166.68 a7.5 7.5 0 1 0 15 0 a7.5 7.5 0 1 0 -15 0zM114.84 1091.68 a7.5 7.5 0 1 0 15 0 a7.5 7.5 0 1 0 -15 0zM244.75 1316.68 a7.5 7.5 0 1 0 15 0 a7.5 7.5 0 1 0 -15 0zM244.75 1391.68 a7.5 7.5 0 1 0 15 0 a7.5 7.5 0 1 0 -15 0zM374.66 491.68 a7.5 7.5 0 1 0 15 0 a7.5 7.5 0 1 0 -15 0zM439.61 529.18 a7.5 7.5 0 1 0 15 0 a7.5 7.5 0 1 0 -15 0zM439.61 604.18 a7.5 7.5 0 1 0 15 0 a7.5 7.5 0 1 0 -15 0zM374.66 641.68 a7.5 7.5 0 1 0 15 0 a7.5 7.5 0 1 0 -15 0zM309.7 604.18 a7.5 7.5 0 1 0 15 0 a7.5 7.5 0 1 0 -15 0zM309.7 529.18 a7.5 7.5 0 1 0 15 0 a7.5 7.5 0 1 0 -15 0zM309.7 1279.18 a7.5 7.5 0 1 0 15 0 a7.5 7.5 0 1 0 -15 0zM374.66 1316.68 a7.5 7.5 0 1 0 15 0 a7.5 7.5 0 1 0 -15 0zM374.66 1391.68 a7.5 7.5 0 1 0 15 0 a7.5 7.5 0 1 0 -15 0zM309.7 1429.18 a7.5 7.5 0 1 0 15 0 a7.5 7.5 0 1 0 -15 0zM439.61 -70.82 a7.5 7.5 0 1 0 15 0 a7.5 7.5 0 1 0 -15 0zM504.57 -33.32 a7.5 7.5 0 1 0 15 0 a7.5 7.5 0 1 0 -15 0zM504.57 41.68 a7.5 7.5 0 1 0 15 0 a7.5 7.5 0 1 0 -15 0zM439.61 79.18 a7.5 7.5 0 1 0 15 0 a7.5 7.5 0 1 0 -15 0zM374.66 41.68 a7.5 7.5 0 1 0 15 0 a7.5 7.5 0 1 0 -15 0zM374.66 -33.32 a7.5 7.5 0 1 0 15 0 a7.5 7.5 0 1 0 -15 0zM504.57 491.68 a7.5 7.5 0 1 0 15 0 a7.5 7.5 0 1 0 -15 0zM569.52 529.18 a7.5 7.5 0 1 0 15 0 a7.5 7.5 0 1 0 -15 0zM569.52 604.18 a7.5 7.5 0 1 0 15 0 a7.5 7.5 0 1 0 -15 0zM504.57 641.68 a7.5 7.5 0 1 0 15 0 a7.5 7.5 0 1 0 -15 0zM504.57 941.68 a7.5 7.5 0 1 0 15 0 a7.5 7.5 0 1 0 -15 0zM569.52 979.18 a7.5 7.5 0 1 0 15 0 a7.5 7.5 0 1 0 -15 0zM569.52 1054.18 a7.5 7.5 0 1 0 15 0 a7.5 7.5 0 1 0 -15 0zM504.57 1091.68 a7.5 7.5 0 1 0 15 0 a7.5 7.5 0 1 0 -15 0zM439.61 1054.18 a7.5 7.5 0 1 0 15 0 a7.5 7.5 0 1 0 -15 0zM439.61 979.18 a7.5 7.5 0 1 0 15 0 a7.5 7.5 0 1 0 -15 0zM439.61 1279.18 a7.5 7.5 0 1 0 15 0 a7.5 7.5 0 1 0 -15 0zM504.57 1316.68 a7.5 7.5 0 1 0 15 0 a7.5 7.5 0 1 0 -15 0zM504.57 1391.68 a7.5 7.5 0 1 0 15 0 a7.5 7.5 0 1 0 -15 0zM439.61 1429.18 a7.5 7.5 0 1 0 15 0 a7.5 7.5 0 1 0 -15 0zM569.52 154.18 a7.5 7.5 0 1 0 15 0 a7.5 7.5 0 1 0 -15 0zM634.47 191.68 a7.5 7.5 0 1 0 15 0 a7.5 7.5 0 1 0 -15 0zM634.47 266.68 a7.5 7.5 0 1 0 15 0 a7.5 7.5 0 1 0 -15 0zM569.52 304.18 a7.5 7.5 0 1 0 15 0 a7.5 7.5 0 1 0 -15 0zM504.57 266.68 a7.5 7.5 0 1 0 15 0 a7.5 7.5 0 1 0 -15 0zM504.57 191.68 a7.5 7.5 0 1 0 15 0 a7.5 7.5 0 1 0 -15 0zM634.47 716.68 a7.5 7.5 0 1 0 15 0 a7.5 7.5 0 1 0 -15 0zM699.43 754.18 a7.5 7.5 0 1 0 15 0 a7.5 7.5 0 1 0 -15 0zM699.43 829.18 a7.5 7.5 0 1 0 15 0 a7.5 7.5 0 1 0 -15 0zM634.47 866.68 a7.5 7.5 0 1 0 15 0 a7.5 7.5 0 1 0 -15 0zM569.52 829.18 a7.5 7.5 0 1 0 15 0 a7.5 7.5 0 1 0 -15 0zM569.52 754.18 a7.5 7.5 0 1 0 15 0 a7.5 7.5 0 1 0 -15 0zM634.47 941.68 a7.5 7.5 0 1 0 15 0 a7.5 7.5 0 1 0 -15 0zM504.57 866.68 a7.5 7.5 0 1 0 15 0 a7.5 7.5 0 1 0 -15 0zM569.52 1279.18 a7.5 7.5 0 1 0 15 0 a7.5 7.5 0 1 0 -15 0zM634.47 1316.68 a7.5 7.5 0 1 0 15 0 a7.5 7.5 0 1 0 -15 0zM634.47 1391.68 a7.5 7.5 0 1 0 15 0 a7.5 7.5 0 1 0 -15 0zM569.52 1429.18 a7.5 7.5 0 1 0 15 0 a7.5 7.5 0 1 0 -15 0zM699.43 1429.18 a7.5 7.5 0 1 0 15 0 a7.5 7.5 0 1 0 -15 0zM699.43 1504.18 a7.5 7.5 0 1 0 15 0 a7.5 7.5 0 1 0 -15 0zM634.47 1541.68 a7.5 7.5 0 1 0 15 0 a7.5 7.5 0 1 0 -15 0zM569.52 1504.18 a7.5 7.5 0 1 0 15 0 a7.5 7.5 0 1 0 -15 0zM764.38 41.68 a7.5 7.5 0 1 0 15 0 a7.5 7.5 0 1 0 -15 0zM829.34 79.18 a7.5 7.5 0 1 0 15 0 a7.5 7.5 0 1 0 -15 0zM829.34 154.18 a7.5 7.5 0 1 0 15 0 a7.5 7.5 0 1 0 -15 0zM764.38 191.68 a7.5 7.5 0 1 0 15 0 a7.5 7.5 0 1 0 -15 0zM699.43 154.18 a7.5 7.5 0 1 0 15 0 a7.5 7.5 0 1 0 -15 0zM699.43 79.18 a7.5 7.5 0 1 0 15 0 a7.5 7.5 0 1 0 -15 0zM764.38 866.68 a7.5 7.5 0 1 0 15 0 a7.5 7.5 0 1 0 -15 0zM764.38 941.68 a7.5 7.5 0 1 0 15 0 a7.5 7.5 0 1 0 -15 0zM699.43 979.18 a7.5 7.5 0 1 0 15 0 a7.5 7.5 0 1 0 -15 0zM699.43 1054.18 a7.5 7.5 0 1 0 15 0 a7.5 7.5 0 1 0 -15 0zM764.38 1091.68 a7.5 7.5 0 1 0 15 0 a7.5 7.5 0 1 0 -15 0zM764.38 1166.68 a7.5 7.5 0 1 0 15 0 a7.5 7.5 0 1 0 -15 0zM699.43 1204.18 a7.5 7.5 0 1 0 15 0 a7.5 7.5 0 1 0 -15 0zM634.47 1166.68 a7.5 7.5 0 1 0 15 0 a7.5 7.5 0 1 0 -15 0zM634.47 1091.68 a7.5 7.5 0 1 0 15 0 a7.5 7.5 0 1 0 -15 0zM894.29 41.68 a7.5 7.5 0 1 0 15 0 a7.5 7.5 0 1 0 -15 0zM959.24 79.18 a7.5 7.5 0 1 0 15 0 a7.5 7.5 0 1 0 -15 0zM959.24 154.18 a7.5 7.5 0 1 0 15 0 a7.5 7.5 0 1 0 -15 0zM894.29 191.68 a7.5 7.5 0 1 0 15 0 a7.5 7.5 0 1 0 -15 0zM829.33 154.18 a7.5 7.5 0 1 0 15 0 a7.5 7.5 0 1 0 -15 0zM829.33 79.18 a7.5 7.5 0 1 0 15 0 a7.5 7.5 0 1 0 -15 0zM894.29 266.68 a7.5 7.5 0 1 0 15 0 a7.5 7.5 0 1 0 -15 0zM829.33 304.18 a7.5 7.5 0 1 0 15 0 a7.5 7.5 0 1 0 -15 0zM764.38 266.68 a7.5 7.5 0 1 0 15 0 a7.5 7.5 0 1 0 -15 0zM894.29 491.68 a7.5 7.5 0 1 0 15 0 a7.5 7.5 0 1 0 -15 0zM959.24 529.18 a7.5 7.5 0 1 0 15 0 a7.5 7.5 0 1 0 -15 0zM959.24 604.18 a7.5 7.5 0 1 0 15 0 a7.5 7.5 0 1 0 -15 0zM894.29 641.68 a7.5 7.5 0 1 0 15 0 a7.5 7.5 0 1 0 -15 0zM829.33 604.18 a7.5 7.5 0 1 0 15 0 a7.5 7.5 0 1 0 -15 0zM829.33 529.18 a7.5 7.5 0 1 0 15 0 a7.5 7.5 0 1 0 -15 0zM829.33 1054.18 a7.5 7.5 0 1 0 15 0 a7.5 7.5 0 1 0 -15 0zM894.29 1091.68 a7.5 7.5 0 1 0 15 0 a7.5 7.5 0 1 0 -15 0zM894.29 1166.68 a7.5 7.5 0 1 0 15 0 a7.5 7.5 0 1 0 -15 0zM829.33 1204.18 a7.5 7.5 0 1 0 15 0 a7.5 7.5 0 1 0 -15 0zM1024.2 491.68 a7.5 7.5 0 1 0 15 0 a7.5 7.5 0 1 0 -15 0zM1089.15 529.18 a7.5 7.5 0 1 0 15 0 a7.5 7.5 0 1 0 -15 0zM1089.15 604.18 a7.5 7.5 0 1 0 15 0 a7.5 7.5 0 1 0 -15 0zM1024.2 641.68 a7.5 7.5 0 1 0 15 0 a7.5 7.5 0 1 0 -15 0zM1024.2 1166.68 a7.5 7.5 0 1 0 15 0 a7.5 7.5 0 1 0 -15 0zM1089.15 1204.18 a7.5 7.5 0 1 0 15 0 a7.5 7.5 0 1 0 -15 0zM1089.15 1279.18 a7.5 7.5 0 1 0 15 0 a7.5 7.5 0 1 0 -15 0zM1024.2 1316.68 a7.5 7.5 0 1 0 15 0 a7.5 7.5 0 1 0 -15 0zM959.24 1279.18 a7.5 7.5 0 1 0 15 0 a7.5 7.5 0 1 0 -15 0zM959.24 1204.18 a7.5 7.5 0 1 0 15 0 a7.5 7.5 0 1 0 -15 0zM1089.15 -70.82 a7.5 7.5 0 1 0 15 0 a7.5 7.5 0 1 0 -15 0zM1154.1 -33.32 a7.5 7.5 0 1 0 15 0 a7.5 7.5 0 1 0 -15 0zM1154.1 41.68 a7.5 7.5 0 1 0 15 0 a7.5 7.5 0 1 0 -15 0zM1089.15 79.18 a7.5 7.5 0 1 0 15 0 a7.5 7.5 0 1 0 -15 0zM1024.2 41.68 a7.5 7.5 0 1 0 15 0 a7.5 7.5 0 1 0 -15 0zM1024.2 -33.32 a7.5 7.5 0 1 0 15 0 a7.5 7.5 0 1 0 -15 0zM1154.1 266.68 a7.5 7.5 0 1 0 15 0 a7.5 7.5 0 1 0 -15 0zM1219.06 304.18 a7.5 7.5 0 1 0 15 0 a7.5 7.5 0 1 0 -15 0zM1219.06 379.18 a7.5 7.5 0 1 0 15 0 a7.5 7.5 0 1 0 -15 0zM1154.1 416.68 a7.5 7.5 0 1 0 15 0 a7.5 7.5 0 1 0 -15 0zM1089.15 379.18 a7.5 7.5 0 1 0 15 0 a7.5 7.5 0 1 0 -15 0zM1089.15 304.18 a7.5 7.5 0 1 0 15 0 a7.5 7.5 0 1 0 -15 0zM1154.1 491.68 a7.5 7.5 0 1 0 15 0 a7.5 7.5 0 1 0 -15 0zM1024.2 416.68 a7.5 7.5 0 1 0 15 0 a7.5 7.5 0 1 0 -15 0zM1219.06 529.18 a7.5 7.5 0 1 0 15 0 a7.5 7.5 0 1 0 -15 0zM1219.06 604.18 a7.5 7.5 0 1 0 15 0 a7.5 7.5 0 1 0 -15 0zM1154.1 641.68 a7.5 7.5 0 1 0 15 0 a7.5 7.5 0 1 0 -15 0zM1154.1 716.68 a7.5 7.5 0 1 0 15 0 a7.5 7.5 0 1 0 -15 0zM1089.15 754.18 a7.5 7.5 0 1 0 15 0 a7.5 7.5 0 1 0 -15 0zM1024.2 716.68 a7.5 7.5 0 1 0 15 0 a7.5 7.5 0 1 0 -15 0zM1219.06 754.18 a7.5 7.5 0 1 0 15 0 a7.5 7.5 0 1 0 -15 0zM1219.06 829.18 a7.5 7.5 0 1 0 15 0 a7.5 7.5 0 1 0 -15 0zM1154.1 866.68 a7.5 7.5 0 1 0 15 0 a7.5 7.5 0 1 0 -15 0zM1089.15 829.18 a7.5 7.5 0 1 0 15 0 a7.5 7.5 0 1 0 -15 0zM1089.15 1054.18 a7.5 7.5 0 1 0 15 0 a7.5 7.5 0 1 0 -15 0zM1154.1 1091.68 a7.5 7.5 0 1 0 15 0 a7.5 7.5 0 1 0 -15 0zM1154.1 1166.68 a7.5 7.5 0 1 0 15 0 a7.5 7.5 0 1 0 -15 0zM1024.2 1091.68 a7.5 7.5 0 1 0 15 0 a7.5 7.5 0 1 0 -15 0zM1219.06 -70.82 a7.5 7.5 0 1 0 15 0 a7.5 7.5 0 1 0 -15 0zM1284.01 -33.32 a7.5 7.5 0 1 0 15 0 a7.5 7.5 0 1 0 -15 0zM1284.01 41.68 a7.5 7.5 0 1 0 15 0 a7.5 7.5 0 1 0 -15 0zM1219.06 79.18 a7.5 7.5 0 1 0 15 0 a7.5 7.5 0 1 0 -15 0zM1219.06 154.18 a7.5 7.5 0 1 0 15 0 a7.5 7.5 0 1 0 -15 0zM1284.01 191.68 a7.5 7.5 0 1 0 15 0 a7.5 7.5 0 1 0 -15 0zM1284.01 266.68 a7.5 7.5 0 1 0 15 0 a7.5 7.5 0 1 0 -15 0zM1154.1 191.68 a7.5 7.5 0 1 0 15 0 a7.5 7.5 0 1 0 -15 0zM1348.96 304.18 a7.5 7.5 0 1 0 15 0 a7.5 7.5 0 1 0 -15 0zM1348.96 379.18 a7.5 7.5 0 1 0 15 0 a7.5 7.5 0 1 0 -15 0zM1284.01 416.68 a7.5 7.5 0 1 0 15 0 a7.5 7.5 0 1 0 -15 0zM1284.01 641.68 a7.5 7.5 0 1 0 15 0 a7.5 7.5 0 1 0 -15 0zM1284.01 716.68 a7.5 7.5 0 1 0 15 0 a7.5 7.5 0 1 0 -15 0zM1284.01 941.68 a7.5 7.5 0 1 0 15 0 a7.5 7.5 0 1 0 -15 0zM1348.96 979.18 a7.5 7.5 0 1 0 15 0 a7.5 7.5 0 1 0 -15 0zM1348.96 1054.18 a7.5 7.5 0 1 0 15 0 a7.5 7.5 0 1 0 -15 0zM1284.01 1091.68 a7.5 7.5 0 1 0 15 0 a7.5 7.5 0 1 0 -15 0zM1219.06 1054.18 a7.5 7.5 0 1 0 15 0 a7.5 7.5 0 1 0 -15 0zM1219.06 979.18 a7.5 7.5 0 1 0 15 0 a7.5 7.5 0 1 0 -15 0zM1219.06 1279.18 a7.5 7.5 0 1 0 15 0 a7.5 7.5 0 1 0 -15 0zM1284.01 1316.68 a7.5 7.5 0 1 0 15 0 a7.5 7.5 0 1 0 -15 0zM1284.01 1391.68 a7.5 7.5 0 1 0 15 0 a7.5 7.5 0 1 0 -15 0zM1219.06 1429.18 a7.5 7.5 0 1 0 15 0 a7.5 7.5 0 1 0 -15 0zM1154.1 1391.68 a7.5 7.5 0 1 0 15 0 a7.5 7.5 0 1 0 -15 0zM1154.1 1316.68 a7.5 7.5 0 1 0 15 0 a7.5 7.5 0 1 0 -15 0zM1348.97 -70.82 a7.5 7.5 0 1 0 15 0 a7.5 7.5 0 1 0 -15 0zM1413.92 -33.32 a7.5 7.5 0 1 0 15 0 a7.5 7.5 0 1 0 -15 0zM1413.92 41.68 a7.5 7.5 0 1 0 15 0 a7.5 7.5 0 1 0 -15 0zM1348.97 79.18 a7.5 7.5 0 1 0 15 0 a7.5 7.5 0 1 0 -15 0zM1348.97 829.18 a7.5 7.5 0 1 0 15 0 a7.5 7.5 0 1 0 -15 0zM1413.92 866.68 a7.5 7.5 0 1 0 15 0 a7.5 7.5 0 1 0 -15 0zM1413.92 941.68 a7.5 7.5 0 1 0 15 0 a7.5 7.5 0 1 0 -15 0zM1348.97 979.18 a7.5 7.5 0 1 0 15 0 a7.5 7.5 0 1 0 -15 0zM1284.01 866.68 a7.5 7.5 0 1 0 15 0 a7.5 7.5 0 1 0 -15 0zM1348.97 1279.18 a7.5 7.5 0 1 0 15 0 a7.5 7.5 0 1 0 -15 0zM1413.92 1316.68 a7.5 7.5 0 1 0 15 0 a7.5 7.5 0 1 0 -15 0zM1413.92 1391.68 a7.5 7.5 0 1 0 15 0 a7.5 7.5 0 1 0 -15 0zM1348.97 1429.18 a7.5 7.5 0 1 0 15 0 a7.5 7.5 0 1 0 -15 0zM1543.83 41.68 a7.5 7.5 0 1 0 15 0 a7.5 7.5 0 1 0 -15 0zM1608.78 79.18 a7.5 7.5 0 1 0 15 0 a7.5 7.5 0 1 0 -15 0zM1608.78 154.18 a7.5 7.5 0 1 0 15 0 a7.5 7.5 0 1 0 -15 0zM1543.83 191.68 a7.5 7.5 0 1 0 15 0 a7.5 7.5 0 1 0 -15 0zM1478.87 154.18 a7.5 7.5 0 1 0 15 0 a7.5 7.5 0 1 0 -15 0zM1478.87 79.18 a7.5 7.5 0 1 0 15 0 a7.5 7.5 0 1 0 -15 0zM1543.83 491.68 a7.5 7.5 0 1 0 15 0 a7.5 7.5 0 1 0 -15 0zM1608.78 529.18 a7.5 7.5 0 1 0 15 0 a7.5 7.5 0 1 0 -15 0zM1608.78 604.18 a7.5 7.5 0 1 0 15 0 a7.5 7.5 0 1 0 -15 0zM1543.83 641.68 a7.5 7.5 0 1 0 15 0 a7.5 7.5 0 1 0 -15 0zM1478.87 604.18 a7.5 7.5 0 1 0 15 0 a7.5 7.5 0 1 0 -15 0zM1478.87 529.18 a7.5 7.5 0 1 0 15 0 a7.5 7.5 0 1 0 -15 0zM1543.83 716.68 a7.5 7.5 0 1 0 15 0 a7.5 7.5 0 1 0 -15 0zM1478.87 754.18 a7.5 7.5 0 1 0 15 0 a7.5 7.5 0 1 0 -15 0zM1413.92 716.68 a7.5 7.5 0 1 0 15 0 a7.5 7.5 0 1 0 -15 0zM1413.92 641.68 a7.5 7.5 0 1 0 15 0 a7.5 7.5 0 1 0 -15 0zM1478.87 1054.18 a7.5 7.5 0 1 0 15 0 a7.5 7.5 0 1 0 -15 0zM1543.83 1091.68 a7.5 7.5 0 1 0 15 0 a7.5 7.5 0 1 0 -15 0zM1543.83 1166.68 a7.5 7.5 0 1 0 15 0 a7.5 7.5 0 1 0 -15 0zM1478.87 1204.18 a7.5 7.5 0 1 0 15 0 a7.5 7.5 0 1 0 -15 0zM1413.92 1166.68 a7.5 7.5 0 1 0 15 0 a7.5 7.5 0 1 0 -15 0zM1413.92 1091.68 a7.5 7.5 0 1 0 15 0 a7.5 7.5 0 1 0 -15 0z" fill="rgba(0, 0, 0, 0)"></path><path d="M61.08 259.09L91.39 276.59L91.39 311.59L61.08 329.09L30.77 311.59L30.77 276.59zM30.77 416.59L61.08 434.09L61.08 469.09L30.77 486.59L0.46 469.09L0.46 434.09zM121.71 154.09L152.02 171.59L152.02 206.59L121.71 224.09L91.39 206.59L91.39 171.59zM91.39 416.59L121.71 434.09L121.71 469.09L91.39 486.59L61.08 469.09L61.08 434.09zM91.39 521.59L121.71 539.09L121.71 574.09L91.39 591.59L61.08 574.09L61.08 539.09zM91.39 1151.59L121.71 1169.09L121.71 1204.09L91.39 1221.59L61.08 1204.09L61.08 1169.09zM91.39 1256.59L121.71 1274.09L121.71 1309.09L91.39 1326.59L61.08 1309.09L61.08 1274.09zM152.02 -3.41L182.33 14.09L182.33 49.09L152.02 66.59L121.71 49.09L121.71 14.09zM182.33 679.09L212.64 696.59L212.64 731.59L182.33 749.09L152.02 731.59L152.02 696.59zM182.33 889.09L212.64 906.59L212.64 941.59L182.33 959.09L152.02 941.59L152.02 906.59zM182.33 994.09L212.64 1011.59L212.64 1046.59L182.33 1064.09L152.02 1046.59L152.02 1011.59zM182.33 1099.09L212.64 1116.59L212.64 1151.59L182.33 1169.09L152.02 1151.59L152.02 1116.59zM182.33 1414.09L212.64 1431.59L212.64 1466.59L182.33 1484.09L152.02 1466.59L152.02 1431.59zM212.64 -3.41L242.95 14.09L242.95 49.09L212.64 66.59L182.33 49.09L182.33 14.09zM212.64 206.59L242.95 224.09L242.95 259.09L212.64 276.59L182.33 259.09L182.33 224.09zM242.95 469.09L273.26 486.59L273.26 521.59L242.95 539.09L212.64 521.59L212.64 486.59zM212.64 941.59L242.95 959.09L242.95 994.09L212.64 1011.59L182.33 994.09L182.33 959.09zM242.95 1309.09L273.26 1326.59L273.26 1361.59L242.95 1379.09L212.64 1361.59L212.64 1326.59zM212.64 1361.59L242.95 1379.09L242.95 1414.09L212.64 1431.59L182.33 1414.09L182.33 1379.09zM303.58 49.09L333.89 66.59L333.89 101.59L303.58 119.09L273.26 101.59L273.26 66.59zM303.58 259.09L333.89 276.59L333.89 311.59L303.58 329.09L273.26 311.59L273.26 276.59zM303.58 889.09L333.89 906.59L333.89 941.59L303.58 959.09L273.26 941.59L273.26 906.59zM273.26 1361.59L303.58 1379.09L303.58 1414.09L273.26 1431.59L242.95 1414.09L242.95 1379.09zM333.89 626.59L364.2 644.09L364.2 679.09L333.89 696.59L303.58 679.09L303.58 644.09zM364.2 1099.09L394.51 1116.59L394.51 1151.59L364.2 1169.09L333.89 1151.59L333.89 1116.59zM424.82 364.09L455.13 381.59L455.13 416.59L424.82 434.09L394.51 416.59L394.51 381.59zM394.51 1361.59L424.82 1379.09L424.82 1414.09L394.51 1431.59L364.2 1414.09L364.2 1379.09zM424.82 1414.09L455.13 1431.59L455.13 1466.59L424.82 1484.09L394.51 1466.59L394.51 1431.59zM455.13 311.59L485.45 329.09L485.45 364.09L455.13 381.59L424.82 364.09L424.82 329.09zM485.45 889.09L515.76 906.59L515.76 941.59L485.45 959.09L455.13 941.59L455.13 906.59zM485.45 1414.09L515.76 1431.59L515.76 1466.59L485.45 1484.09L455.13 1466.59L455.13 1431.59zM546.07 259.09L576.38 276.59L576.38 311.59L546.07 329.09L515.76 311.59L515.76 276.59zM515.76 311.59L546.07 329.09L546.07 364.09L515.76 381.59L485.45 364.09L485.45 329.09zM515.76 836.59L546.07 854.09L546.07 889.09L515.76 906.59L485.45 889.09L485.45 854.09zM515.76 1256.59L546.07 1274.09L546.07 1309.09L515.76 1326.59L485.45 1309.09L485.45 1274.09zM576.38 1151.59L606.69 1169.09L606.69 1204.09L576.38 1221.59L546.07 1204.09L546.07 1169.09zM606.69 1204.09L637 1221.59L637 1256.59L606.69 1274.09L576.38 1256.59L576.38 1221.59zM576.38 1361.59L606.69 1379.09L606.69 1414.09L576.38 1431.59L546.07 1414.09L546.07 1379.09zM637 -3.41L667.32 14.09L667.32 49.09L637 66.59L606.69 49.09L606.69 14.09zM667.32 154.09L697.63 171.59L697.63 206.59L667.32 224.09L637 206.59L637 171.59zM637 311.59L667.32 329.09L667.32 364.09L637 381.59L606.69 364.09L606.69 329.09zM667.32 574.09L697.63 591.59L697.63 626.59L667.32 644.09L637 626.59L637 591.59zM637 1256.59L667.32 1274.09L667.32 1309.09L637 1326.59L606.69 1309.09L606.69 1274.09zM697.63 311.59L727.94 329.09L727.94 364.09L697.63 381.59L667.32 364.09L667.32 329.09zM727.94 364.09L758.25 381.59L758.25 416.59L727.94 434.09L697.63 416.59L697.63 381.59zM697.63 1151.59L727.94 1169.09L727.94 1204.09L697.63 1221.59L667.32 1204.09L667.32 1169.09zM788.56 154.09L818.88 171.59L818.88 206.59L788.56 224.09L758.25 206.59L758.25 171.59zM758.25 206.59L788.56 224.09L788.56 259.09L758.25 276.59L727.94 259.09L727.94 224.09zM818.88 101.59L849.19 119.09L849.19 154.09L818.88 171.59L788.56 154.09L788.56 119.09zM849.19 364.09L879.5 381.59L879.5 416.59L849.19 434.09L818.88 416.59L818.88 381.59zM818.88 731.59L849.19 749.09L849.19 784.09L818.88 801.59L788.56 784.09L788.56 749.09zM879.5 731.59L909.81 749.09L909.81 784.09L879.5 801.59L849.19 784.09L849.19 749.09zM940.12 -3.41L970.43 14.09L970.43 49.09L940.12 66.59L909.81 49.09L909.81 14.09zM970.43 784.09L1000.75 801.59L1000.75 836.59L970.43 854.09L940.12 836.59L940.12 801.59zM970.43 889.09L1000.75 906.59L1000.75 941.59L970.43 959.09L940.12 941.59L940.12 906.59zM1031.06 259.09L1061.37 276.59L1061.37 311.59L1031.06 329.09L1000.75 311.59L1000.75 276.59zM1061.37 521.59L1091.68 539.09L1091.68 574.09L1061.37 591.59L1031.06 574.09L1031.06 539.09zM1091.68 784.09L1121.99 801.59L1121.99 836.59L1091.68 854.09L1061.37 836.59L1061.37 801.59zM1091.68 1414.09L1121.99 1431.59L1121.99 1466.59L1091.68 1484.09L1061.37 1466.59L1061.37 1431.59zM1152.3 154.09L1182.62 171.59L1182.62 206.59L1152.3 224.09L1121.99 206.59L1121.99 171.59zM1152.3 259.09L1182.62 276.59L1182.62 311.59L1152.3 329.09L1121.99 311.59L1121.99 276.59zM1212.93 49.09L1243.24 66.59L1243.24 101.59L1212.93 119.09L1182.62 101.59L1182.62 66.59zM1182.62 731.59L1212.93 749.09L1212.93 784.09L1182.62 801.59L1152.3 784.09L1152.3 749.09zM1243.24 206.59L1273.55 224.09L1273.55 259.09L1243.24 276.59L1212.93 259.09L1212.93 224.09zM1273.55 574.09L1303.86 591.59L1303.86 626.59L1273.55 644.09L1243.24 626.59L1243.24 591.59zM1243.24 1046.59L1273.55 1064.09L1273.55 1099.09L1243.24 1116.59L1212.93 1099.09L1212.93 1064.09zM1243.24 1151.59L1273.55 1169.09L1273.55 1204.09L1243.24 1221.59L1212.93 1204.09L1212.93 1169.09zM1273.55 1309.09L1303.86 1326.59L1303.86 1361.59L1273.55 1379.09L1243.24 1361.59L1243.24 1326.59zM1243.24 1361.59L1273.55 1379.09L1273.55 1414.09L1243.24 1431.59L1212.93 1414.09L1212.93 1379.09zM1364.49 1046.59L1394.8 1064.09L1394.8 1099.09L1364.49 1116.59L1334.18 1099.09L1334.18 1064.09zM1394.8 1204.09L1425.11 1221.59L1425.11 1256.59L1394.8 1274.09L1364.49 1256.59L1364.49 1221.59zM1394.8 1414.09L1425.11 1431.59L1425.11 1466.59L1394.8 1484.09L1364.49 1466.59L1364.49 1431.59zM1455.42 49.09L1485.73 66.59L1485.73 101.59L1455.42 119.09L1425.11 101.59L1425.11 66.59zM1425.11 626.59L1455.42 644.09L1455.42 679.09L1425.11 696.59L1394.8 679.09L1394.8 644.09z" stroke="url(&quot;#SvgjsLinearGradient1404&quot;)" stroke-width="2"></path></g><defs><mask id="SvgjsMask1403"><rect width="1440" height="1440" fill="#ffffff"></rect></mask><linearGradient x1="1440" y1="0" x2="0" y2="1440" gradientUnits="userSpaceOnUse" id="SvgjsLinearGradient1404"><stop stop-color="#0e2a47" offset="0"></stop><stop stop-color="rgba(8, 136, 116, 1)" offset="1"></stop></linearGradient></defs></svg>